<mxfile host="65bd71144e">
    <diagram id="lDwlrmedswaYhWj3Izeg" name="Página-1">
        <mxGraphModel dx="1243" dy="702" grid="1" gridSize="10" guides="1" tooltips="1" connect="1" arrows="1" fold="1" page="1" pageScale="1" pageWidth="827" pageHeight="1169" math="0" shadow="0">
            <root>
                <mxCell id="0"/>
                <mxCell id="1" parent="0"/>
                <mxCell id="148" value="" style="group" vertex="1" connectable="0" parent="1">
                    <mxGeometry x="120" y="40" width="480" height="440" as="geometry"/>
                </mxCell>
                <mxCell id="6" value="Personas" style="rounded=0;whiteSpace=wrap;html=1;" vertex="1" parent="148">
                    <mxGeometry y="120" width="160" height="80" as="geometry"/>
                </mxCell>
                <mxCell id="42" value="Dirección" style="ellipse;whiteSpace=wrap;html=1;labelPadding=0;noLabel=0;perimeter=ellipsePerimeter;fixDash=0;container=0;dropTarget=0;collapsible=0;part=0;" vertex="1" parent="148">
                    <mxGeometry x="200" y="40" width="100" height="40" as="geometry"/>
                </mxCell>
                <mxCell id="59" style="edgeStyle=orthogonalEdgeStyle;curved=1;html=1;exitX=0.5;exitY=0;exitDx=0;exitDy=0;entryX=0;entryY=0.5;entryDx=0;entryDy=0;labelBorderColor=none;strokeWidth=1;endArrow=circle;endFill=0;endSize=4;targetPerimeterSpacing=8;sourcePerimeterSpacing=0;startFill=1;snapToPoint=1;ignoreEdge=0;orthogonal=0;comic=0;targetPortConstraint=none;arcSize=20;" edge="1" parent="148" source="6" target="42">
                    <mxGeometry relative="1" as="geometry"/>
                </mxCell>
                <mxCell id="66" value="Provincia" style="text;html=1;strokeColor=none;fillColor=none;align=left;verticalAlign=middle;whiteSpace=wrap;rounded=0;" vertex="1" parent="148">
                    <mxGeometry x="360" width="80" height="20" as="geometry"/>
                </mxCell>
                <mxCell id="61" style="edgeStyle=orthogonalEdgeStyle;curved=1;html=1;exitX=0.5;exitY=0;exitDx=0;exitDy=0;labelBorderColor=none;strokeWidth=1;endArrow=circle;endFill=0;endSize=4;sourcePerimeterSpacing=0;targetPerimeterSpacing=0;entryX=0;entryY=0.5;entryDx=0;entryDy=0;" edge="1" parent="148" source="42" target="66">
                    <mxGeometry relative="1" as="geometry">
                        <mxPoint x="340" y="30" as="targetPoint"/>
                        <Array as="points">
                            <mxPoint x="250" y="10"/>
                        </Array>
                    </mxGeometry>
                </mxCell>
                <mxCell id="68" value="Localidad" style="text;html=1;strokeColor=none;fillColor=none;align=left;verticalAlign=middle;whiteSpace=wrap;rounded=0;" vertex="1" parent="148">
                    <mxGeometry x="360" y="20" width="80" height="20" as="geometry"/>
                </mxCell>
                <mxCell id="63" style="edgeStyle=orthogonalEdgeStyle;curved=1;html=1;exitX=1;exitY=0;exitDx=0;exitDy=0;labelBorderColor=none;strokeWidth=1;endArrow=circle;endFill=0;endSize=4;sourcePerimeterSpacing=0;targetPerimeterSpacing=0;entryX=0;entryY=0.5;entryDx=0;entryDy=0;" edge="1" parent="148" source="42" target="68">
                    <mxGeometry relative="1" as="geometry">
                        <mxPoint x="340" y="60" as="targetPoint"/>
                        <Array as="points">
                            <mxPoint x="285" y="30"/>
                        </Array>
                    </mxGeometry>
                </mxCell>
                <mxCell id="69" value="Calle" style="text;html=1;strokeColor=none;fillColor=none;align=left;verticalAlign=middle;whiteSpace=wrap;rounded=0;" vertex="1" parent="148">
                    <mxGeometry x="360" y="40" width="80" height="20" as="geometry"/>
                </mxCell>
                <mxCell id="64" style="edgeStyle=orthogonalEdgeStyle;curved=1;html=1;exitX=1;exitY=0.5;exitDx=0;exitDy=0;labelBorderColor=none;strokeWidth=1;endArrow=circle;endFill=0;endSize=4;sourcePerimeterSpacing=0;targetPerimeterSpacing=0;entryX=0;entryY=0.5;entryDx=0;entryDy=0;" edge="1" parent="148" source="42" target="69">
                    <mxGeometry relative="1" as="geometry">
                        <mxPoint x="340" y="90" as="targetPoint"/>
                        <Array as="points">
                            <mxPoint x="300" y="50"/>
                        </Array>
                    </mxGeometry>
                </mxCell>
                <mxCell id="70" value="Número" style="text;html=1;strokeColor=none;fillColor=none;align=left;verticalAlign=middle;whiteSpace=wrap;rounded=0;" vertex="1" parent="148">
                    <mxGeometry x="360" y="60" width="80" height="20" as="geometry"/>
                </mxCell>
                <mxCell id="73" style="edgeStyle=orthogonalEdgeStyle;curved=1;html=1;exitX=1;exitY=0.5;exitDx=0;exitDy=0;entryX=0;entryY=0.5;entryDx=0;entryDy=0;labelBorderColor=none;strokeWidth=1;endArrow=circle;endFill=0;endSize=4;sourcePerimeterSpacing=0;targetPerimeterSpacing=0;" edge="1" parent="148" source="42" target="70">
                    <mxGeometry relative="1" as="geometry">
                        <Array as="points">
                            <mxPoint x="300" y="70"/>
                        </Array>
                    </mxGeometry>
                </mxCell>
                <mxCell id="71" value="Departamento" style="text;html=1;strokeColor=none;fillColor=none;align=left;verticalAlign=middle;whiteSpace=wrap;rounded=0;" vertex="1" parent="148">
                    <mxGeometry x="360" y="80" width="80" height="20" as="geometry"/>
                </mxCell>
                <mxCell id="74" style="edgeStyle=orthogonalEdgeStyle;curved=1;html=1;exitX=1;exitY=1;exitDx=0;exitDy=0;entryX=0;entryY=0.5;entryDx=0;entryDy=0;labelBorderColor=none;strokeWidth=1;endArrow=circle;endFill=0;endSize=4;sourcePerimeterSpacing=0;targetPerimeterSpacing=0;" edge="1" parent="148" source="42" target="71">
                    <mxGeometry relative="1" as="geometry">
                        <Array as="points">
                            <mxPoint x="285" y="90"/>
                        </Array>
                    </mxGeometry>
                </mxCell>
                <mxCell id="75" value="0 .. 1" style="text;html=1;strokeColor=none;fillColor=none;align=center;verticalAlign=middle;whiteSpace=wrap;rounded=0;" vertex="1" parent="148">
                    <mxGeometry x="440" y="80" width="40" height="20" as="geometry"/>
                </mxCell>
                <mxCell id="92" style="edgeStyle=entityRelationEdgeStyle;html=1;labelBorderColor=none;strokeWidth=1;endArrow=oval;endFill=1;endSize=6;targetPerimeterSpacing=0;curved=1;exitX=1;exitY=0;exitDx=0;exitDy=0;" edge="1" target="94" parent="148" source="6">
                    <mxGeometry relative="1" as="geometry">
                        <mxPoint x="240" y="140" as="sourcePoint"/>
                    </mxGeometry>
                </mxCell>
                <mxCell id="93" value="" style="group;align=left;" vertex="1" connectable="0" parent="148">
                    <mxGeometry x="200" y="110" width="120" height="20" as="geometry"/>
                </mxCell>
                <mxCell id="94" value="DNI" style="text;html=1;strokeColor=none;fillColor=none;align=left;verticalAlign=middle;whiteSpace=wrap;rounded=0;container=0;spacingLeft=8;spacingRight=0;" vertex="1" parent="93">
                    <mxGeometry width="80" height="20" as="geometry"/>
                </mxCell>
                <mxCell id="116" style="edgeStyle=entityRelationEdgeStyle;html=1;labelBorderColor=none;strokeWidth=1;endArrow=oval;endFill=0;endSize=6;targetPerimeterSpacing=0;curved=1;align=left;exitX=1;exitY=0.5;exitDx=0;exitDy=0;" edge="1" target="118" parent="148" source="6">
                    <mxGeometry relative="1" as="geometry">
                        <mxPoint x="170" y="160" as="sourcePoint"/>
                    </mxGeometry>
                </mxCell>
                <mxCell id="117" value="" style="group;spacingLeft=2;align=center;" vertex="1" connectable="0" parent="148">
                    <mxGeometry x="200" y="150" width="120" height="20" as="geometry"/>
                </mxCell>
                <mxCell id="118" value="Apellido" style="text;html=1;strokeColor=none;fillColor=none;align=left;verticalAlign=middle;whiteSpace=wrap;rounded=0;container=0;spacingLeft=8;" vertex="1" parent="117">
                    <mxGeometry width="80" height="20" as="geometry"/>
                </mxCell>
                <mxCell id="124" style="edgeStyle=entityRelationEdgeStyle;html=1;labelBorderColor=none;strokeWidth=1;endArrow=oval;endFill=1;endSize=6;targetPerimeterSpacing=0;curved=1;align=left;exitX=1;exitY=0.25;exitDx=0;exitDy=0;" edge="1" target="126" parent="148" source="6">
                    <mxGeometry relative="1" as="geometry">
                        <mxPoint x="170" y="140" as="sourcePoint"/>
                    </mxGeometry>
                </mxCell>
                <mxCell id="125" value="" style="group;spacingLeft=2;align=center;" vertex="1" connectable="0" parent="148">
                    <mxGeometry x="200" y="130" width="120" height="20" as="geometry"/>
                </mxCell>
                <mxCell id="126" value="CUIT" style="text;html=1;strokeColor=none;fillColor=none;align=left;verticalAlign=middle;whiteSpace=wrap;rounded=0;container=0;spacingLeft=8;" vertex="1" parent="125">
                    <mxGeometry width="80" height="20" as="geometry"/>
                </mxCell>
                <mxCell id="128" style="edgeStyle=entityRelationEdgeStyle;html=1;labelBorderColor=none;strokeWidth=1;endArrow=oval;endFill=0;endSize=6;targetPerimeterSpacing=0;curved=1;align=left;exitX=1;exitY=0.75;exitDx=0;exitDy=0;" edge="1" target="130" parent="148" source="6">
                    <mxGeometry relative="1" as="geometry">
                        <mxPoint x="180" y="180" as="sourcePoint"/>
                    </mxGeometry>
                </mxCell>
                <mxCell id="129" value="" style="group;spacingLeft=2;align=center;" vertex="1" connectable="0" parent="148">
                    <mxGeometry x="200" y="170" width="120" height="20" as="geometry"/>
                </mxCell>
                <mxCell id="130" value="Nombre" style="text;html=1;strokeColor=none;fillColor=none;align=left;verticalAlign=middle;whiteSpace=wrap;rounded=0;container=0;spacingLeft=8;" vertex="1" parent="129">
                    <mxGeometry width="80" height="20" as="geometry"/>
                </mxCell>
                <mxCell id="133" style="edgeStyle=entityRelationEdgeStyle;html=1;labelBorderColor=none;strokeWidth=1;endArrow=oval;endFill=0;endSize=6;targetPerimeterSpacing=0;curved=1;align=left;exitX=1;exitY=1;exitDx=0;exitDy=0;" edge="1" target="135" parent="148" source="6">
                    <mxGeometry relative="1" as="geometry">
                        <mxPoint x="180" y="210" as="sourcePoint"/>
                    </mxGeometry>
                </mxCell>
                <mxCell id="134" value="" style="group;spacingLeft=2;align=center;" vertex="1" connectable="0" parent="148">
                    <mxGeometry x="200" y="190" width="120" height="20" as="geometry"/>
                </mxCell>
                <mxCell id="135" value="Teléfonos" style="text;html=1;strokeColor=none;fillColor=none;align=left;verticalAlign=middle;whiteSpace=wrap;rounded=0;container=0;spacingLeft=8;" vertex="1" parent="134">
                    <mxGeometry width="80" height="20" as="geometry"/>
                </mxCell>
                <mxCell id="136" value="0 ..&amp;nbsp;N" style="text;html=1;strokeColor=none;fillColor=none;align=center;verticalAlign=middle;whiteSpace=wrap;rounded=0;container=0;" vertex="1" parent="134">
                    <mxGeometry x="80" width="40" height="20" as="geometry"/>
                </mxCell>
                <mxCell id="138" style="edgeStyle=orthogonalEdgeStyle;curved=1;html=1;exitX=0.5;exitY=0;exitDx=0;exitDy=0;entryX=0.5;entryY=1;entryDx=0;entryDy=0;labelBorderColor=none;strokeWidth=1;endArrow=none;endFill=0;endSize=6;sourcePerimeterSpacing=0;targetPerimeterSpacing=0;" edge="1" parent="148" source="137" target="6">
                    <mxGeometry relative="1" as="geometry"/>
                </mxCell>
                <mxCell id="137" value="Realizar" style="rhombus;whiteSpace=wrap;html=1;" vertex="1" parent="148">
                    <mxGeometry y="240" width="160" height="80" as="geometry"/>
                </mxCell>
                <mxCell id="143" value="(0..N)" style="text;html=1;strokeColor=none;fillColor=none;align=center;verticalAlign=middle;whiteSpace=wrap;rounded=0;" vertex="1" parent="148">
                    <mxGeometry x="80" y="330" width="40" height="20" as="geometry"/>
                </mxCell>
                <mxCell id="144" value="(0..N)" style="text;html=1;strokeColor=none;fillColor=none;align=center;verticalAlign=middle;whiteSpace=wrap;rounded=0;" vertex="1" parent="148">
                    <mxGeometry x="40" y="210" width="40" height="20" as="geometry"/>
                </mxCell>
                <mxCell id="145" value="Actividades" style="rounded=0;whiteSpace=wrap;html=1;" vertex="1" parent="148">
                    <mxGeometry y="360" width="160" height="80" as="geometry"/>
                </mxCell>
                <mxCell id="139" style="edgeStyle=orthogonalEdgeStyle;curved=1;html=1;exitX=0.5;exitY=1;exitDx=0;exitDy=0;labelBorderColor=none;strokeWidth=1;endArrow=none;endFill=0;endSize=6;sourcePerimeterSpacing=0;targetPerimeterSpacing=0;entryX=0.5;entryY=0;entryDx=0;entryDy=0;" edge="1" parent="148" source="137" target="145">
                    <mxGeometry relative="1" as="geometry">
                        <mxPoint x="80.47619047619048" y="360" as="targetPoint"/>
                    </mxGeometry>
                </mxCell>
            </root>
        </mxGraphModel>
    </diagram>
</mxfile>